<?xml version="1.0" encoding="utf-8"?>
<!-- Generator: Adobe Illustrator 28.1.0, SVG Export Plug-In . SVG Version: 6.00 Build 0)  -->
<svg version="1.1" xmlns="http://www.w3.org/2000/svg" xmlns:xlink="http://www.w3.org/1999/xlink" x="0px" y="0px"
	 viewBox="0 0 1000 1000" style="enable-background:new 0 0 1000 1000;" xml:space="preserve">
<g id="Layer_1">
</g>
<g id="Layer_2">
	<g>
		<polygon points="957.89,0 613.53,337.16 613.73,442.74 500,517.82 386.27,442.74 386.47,337.16 42.11,0 0,225.16 33.06,256.45 
			42.56,383.35 500,698.32 957.44,383.35 966.94,256.45 1000,225.16 		"/>
		<polygon points="500,755.32 458.4,716.68 386.16,784.57 500,1000 613.84,784.57 541.6,716.68 		"/>
		<polygon points="592.64,375.04 500,197.03 500,197.04 500,197.03 407.36,375.04 500,466.41 		"/>
		<polygon points="748.29,699.68 850.81,506.93 549.6,699.53 		"/>
		<polygon points="149.19,506.93 251.71,699.68 450.4,699.53 		"/>
	</g>
</g>
</svg>
